<svg width="414" height="577" viewBox="0 0 414 577" fill="none" xmlns="http://www.w3.org/2000/svg">
<path d="M144.249 58.2072C187.731 80.1485 217.534 120.586 260.211 144.056C308.722 170.735 370.512 169.202 412.24 205.587C458.341 245.785 502.102 298.781 507.524 359.705C512.941 420.579 473.21 476.163 440.936 528.061C411.651 575.152 376.821 620.706 328.403 647.741C282.997 673.094 225.302 656.573 176.867 675.508C122.86 696.621 87.2585 755.939 29.8975 764.436C-29.7475 773.271 -109.829 772.795 -143.853 723.016C-183.242 665.387 -134.776 585.9 -139.723 516.272C-142.512 477.014 -155.592 440.608 -166.6 402.822C-180.533 354.996 -210.932 312.66 -213.532 262.914C-216.728 201.768 -219.271 133.591 -183.259 84.0719C-147.45 34.8316 -83.817 5.87839 -23.1218 1.08505C36.3914 -3.61494 90.9518 31.3131 144.249 58.2072Z" />
</svg>
