<?xml version="1.0" standalone="no"?>
<!DOCTYPE svg PUBLIC "-//W3C//DTD SVG 20010904//EN"
 "http://www.w3.org/TR/2001/REC-SVG-20010904/DTD/svg10.dtd">
<svg version="1.0" xmlns="http://www.w3.org/2000/svg"
 width="3000.000000pt" height="3000.000000pt" viewBox="0 0 3000.000000 3000.000000"
 preserveAspectRatio="xMidYMid meet">

<g transform="translate(0.000000,3000.000000) scale(0.100000,-0.100000)"
fill="#000000" stroke="none">
<path d="M13873 25349 c-772 -90 -1390 -634 -1555 -1370 -20 -92 -23 -129 -22
-319 0 -202 2 -224 33 -374 61 -299 134 -508 260 -752 113 -218 210 -352 352
-490 41 -39 82 -88 92 -109 l18 -38 -53 -46 c-328 -284 -601 -589 -942 -1056
-366 -499 -543 -790 -670 -1101 -60 -149 -146 -447 -166 -584 -20 -133 -40
-1144 -125 -6530 -44 -2786 -69 -4303 -83 -5165 -4 -242 -5 -465 -1 -495 4
-30 13 -98 19 -150 45 -366 170 -742 339 -1019 162 -264 400 -499 647 -638
376 -212 810 -293 1371 -257 65 4 1365 8 2888 8 l2770 1 115 23 c220 44 380
97 562 187 388 193 687 531 823 929 76 222 76 230 85 826 5 294 13 641 19 770
12 252 49 1325 106 3020 19 580 42 1258 50 1505 8 248 42 1274 75 2280 71
2167 97 2944 106 3157 l7 156 51 59 c28 32 78 82 111 112 385 344 569 596 733
1001 154 381 204 713 182 1210 -8 187 -29 395 -45 439 -3 7 19 70 49 140 103
241 141 390 155 608 16 236 -15 518 -80 721 -91 282 -232 514 -457 754 -51 54
-92 102 -92 107 0 5 -9 12 -20 16 -11 3 -57 38 -102 77 -95 83 -295 232 -453
340 -380 260 -1126 657 -1234 658 -9 0 -41 42 -75 98 -117 192 -211 304 -360
429 -244 206 -633 409 -1025 537 -477 156 -868 193 -1761 167 -327 -10 -508
-10 -850 -1 -239 7 -500 13 -580 15 -135 2 -157 5 -325 48 -214 54 -308 73
-475 92 -133 16 -349 18 -467 4z m522 -193 c202 -30 342 -64 820 -201 302 -87
510 -135 780 -182 146 -25 183 -27 420 -28 207 0 279 4 355 18 215 40 384 105
533 206 l76 51 128 -10 c264 -21 461 -56 698 -125 418 -122 807 -316 1064
-530 184 -153 270 -271 481 -660 204 -376 323 -537 505 -684 203 -165 386
-251 647 -303 144 -28 382 -31 496 -5 40 9 82 17 92 17 20 0 166 -144 243
-241 101 -124 187 -276 248 -434 79 -206 122 -533 100 -768 -26 -270 -63 -380
-268 -785 -217 -428 -256 -528 -284 -727 -25 -178 11 -489 71 -611 38 -78 53
-85 74 -33 19 47 20 80 4 271 -9 114 -9 179 0 280 17 191 47 292 149 500 119
244 117 248 110 -200 -5 -367 -12 -443 -62 -652 -77 -320 -232 -648 -413 -875
-139 -173 -384 -415 -421 -415 -16 0 -19 13 -25 108 -36 558 -160 1054 -381
1528 -29 61 -54 135 -66 192 -63 304 -154 469 -493 900 -96 122 -199 259 -229
305 -30 45 -101 154 -159 242 -58 88 -133 194 -166 236 -198 246 -496 434
-814 513 -214 54 -286 59 -778 60 l-455 2 -140 36 c-77 20 -219 53 -316 72
-144 29 -198 45 -295 87 -422 183 -575 239 -774 283 -254 56 -452 68 -682 41
-274 -32 -511 -102 -893 -265 -132 -56 -319 -128 -415 -160 -178 -60 -553
-157 -693 -181 l-77 -13 -66 65 c-174 171 -284 326 -401 564 -132 271 -220
573 -254 875 -35 308 45 636 221 905 272 415 707 683 1210 745 99 12 369 4
495 -14z m1302 -132 c-3 -3 -12 -4 -19 -1 -8 3 -5 6 6 6 11 1 17 -2 13 -5z
m1313 1 c0 -8 -156 -53 -239 -69 -236 -45 -498 -40 -821 15 -278 47 -275 49
75 44 176 -2 430 -1 565 4 335 10 420 12 420 6z m3037 -1338 c54 -30 143 -78
198 -107 296 -158 674 -395 923 -579 193 -143 195 -151 44 -151 -263 0 -547
73 -731 188 -148 92 -282 219 -406 386 -50 69 -185 299 -185 317 0 25 38 12
157 -54z m-4252 -1227 c116 -20 311 -67 368 -89 16 -6 26 -15 23 -20 -3 -4
-178 -6 -393 -3 -392 5 -643 -4 -928 -34 -173 -17 -185 -17 -185 0 0 24 265
104 464 141 210 39 442 41 651 5z m-306 -282 c0 -7 -34 -38 -76 -68 -197 -143
-571 -565 -788 -890 -155 -232 -321 -557 -376 -735 l-23 -72 -235 -6 c-608
-17 -1208 -121 -1614 -279 -360 -140 -630 -334 -826 -593 -29 -39 -63 -73 -76
-76 l-24 -7 30 87 c63 180 236 499 406 745 125 180 360 498 477 645 185 231
355 416 617 670 138 135 256 254 261 267 8 17 22 23 62 28 103 13 397 77 536
116 325 92 997 172 1488 178 124 2 162 -1 161 -10z m484 6 c20 -4 37 -12 37
-18 0 -6 -48 -47 -106 -91 -243 -183 -586 -587 -876 -1030 -143 -218 -276
-441 -334 -559 l-49 -98 -95 6 c-52 3 -121 6 -152 6 -44 0 -58 4 -58 14 0 45
263 521 378 686 242 344 531 666 818 911 83 72 156 141 162 154 11 24 14 25
124 25 62 0 130 -3 151 -6z m664 -65 c135 -19 252 -42 308 -60 123 -39 240
-66 370 -84 125 -18 201 -38 400 -102 271 -88 549 -200 764 -308 l109 -54 7
-218 c4 -120 5 -479 2 -798 -5 -591 2 -822 28 -949 19 -93 19 -106 -4 -106
-10 0 -71 25 -135 55 -331 156 -744 312 -1096 414 -604 174 -1714 380 -2405
446 -208 20 -215 22 -215 41 0 30 324 515 506 759 281 376 531 646 796 858 80
65 149 125 152 134 9 22 124 14 413 -28z m1791 -180 c388 -42 679 -175 914
-417 52 -54 127 -144 167 -202 109 -158 251 -385 251 -401 0 -8 6 -21 13 -29
10 -12 9 -12 -6 -1 -9 8 -30 21 -46 30 -16 9 -71 54 -123 99 -108 97 -322 261
-470 360 -248 166 -647 379 -927 493 -72 29 -131 59 -131 66 0 17 216 18 358
2z m425 -577 c62 -38 129 -79 150 -93 l37 -24 -6 -155 c-9 -221 15 -737 52
-1110 20 -204 68 -544 99 -697 14 -67 25 -125 25 -128 0 -16 -48 5 -223 95
l-194 100 -17 132 c-30 238 -35 377 -35 924 0 478 -10 855 -27 982 -4 34 -2
42 11 42 9 0 66 -31 128 -68z m404 -270 c235 -175 572 -500 757 -732 123 -154
287 -396 372 -550 l59 -105 6 -290 c7 -309 10 -346 40 -468 29 -114 51 -171
149 -377 101 -211 123 -273 145 -395 18 -104 19 -145 4 -145 -6 0 -67 53 -134
119 -268 258 -602 497 -1100 786 -93 54 -176 103 -182 109 -7 6 -17 59 -22
121 -6 61 -26 207 -45 325 -74 453 -129 994 -152 1508 -6 133 -5 152 9 152 8
0 51 -26 94 -58z m-4602 -837 c886 -71 2090 -287 2807 -504 628 -190 1376
-536 2122 -983 571 -342 949 -640 1155 -912 l71 -92 -6 -144 c-3 -80 -18 -561
-35 -1070 -28 -899 -88 -2706 -112 -3415 l-12 -349 -70 -12 c-38 -7 -209 -37
-380 -68 -329 -59 -456 -76 -730 -100 -806 -71 -1633 -92 -3275 -82 -2628 15
-3485 69 -4565 288 -165 33 -313 63 -329 66 l-29 5 7 431 c3 237 15 973 26
1636 38 2342 42 2642 48 3340 l7 705 46 96 c124 256 313 508 483 645 185 149
457 284 722 358 297 83 707 151 1069 175 187 13 746 5 980 -14z m6035 -1177
c48 -162 89 -341 88 -386 l-1 -33 -23 26 c-61 71 -133 306 -141 460 l-6 110
22 -22 c12 -13 37 -77 61 -155z m-9255 -6358 c586 -148 1324 -246 2175 -290
1154 -58 4256 -70 5155 -20 262 15 586 38 775 56 267 24 408 47 1032 167 32 6
60 8 63 5 3 -3 -12 -558 -35 -1234 -87 -2646 -112 -3450 -130 -4174 -21 -833
-23 -876 -63 -1030 -79 -301 -183 -492 -377 -694 -212 -219 -480 -347 -919
-437 -139 -29 -230 -42 -311 -45 -119 -4 -5387 -19 -5680 -15 -806 9 -1359
324 -1660 945 -111 230 -189 501 -230 803 -63 469 -59 344 -44 1238 36 2160
74 4533 74 4643 0 67 4 122 8 122 4 0 80 -18 167 -40z"/>
<path d="M12985 18500 c-323 -33 -589 -110 -810 -236 -107 -61 -283 -191 -351
-259 -71 -70 -86 -102 -73 -150 9 -32 14 -36 32 -30 12 4 38 10 57 14 19 4
103 33 185 63 349 129 585 177 862 178 182 0 312 -16 618 -76 279 -55 329 -56
427 -2 90 50 122 103 126 213 4 81 3 83 -30 120 -62 71 -200 120 -428 151
-130 18 -494 26 -615 14z"/>
<path d="M16007 18411 c-31 -10 -73 -31 -92 -46 -66 -49 -107 -168 -109 -312
-1 -62 2 -75 22 -93 12 -11 22 -25 22 -29 0 -5 18 -16 40 -25 52 -21 144 -20
340 1 224 25 842 25 1023 0 270 -37 486 -93 797 -207 l195 -71 37 17 c21 9 45
26 55 36 17 20 17 21 -14 47 -58 47 -315 204 -458 277 -508 263 -1059 407
-1610 420 -168 4 -197 2 -248 -15z"/>
<path d="M18175 17159 c-125 -41 -844 -223 -995 -253 -189 -37 -344 -55 -570
-66 -400 -20 -478 -38 -520 -121 -45 -87 -6 -216 84 -276 73 -50 135 -65 277
-70 149 -6 280 11 488 62 376 92 897 303 1201 487 125 75 252 169 274 202 18
28 11 36 -43 55 -51 17 -96 12 -196 -20z"/>
<path d="M11952 17024 c-13 -23 -4 -55 24 -82 13 -13 24 -27 24 -32 0 -14 133
-110 250 -181 367 -220 728 -330 1080 -330 282 0 527 81 606 200 48 73 9 128
-127 181 -117 45 -155 50 -474 60 -346 12 -494 23 -715 55 -198 28 -368 65
-511 111 -119 38 -144 41 -157 18z"/>
<path d="M17839 16041 c-20 -15 -61 -56 -90 -92 -260 -312 -554 -518 -982
-688 -493 -195 -819 -258 -1394 -268 -167 -3 -303 -9 -303 -13 0 -4 -22 -10
-50 -13 -109 -13 -196 -74 -232 -165 -20 -51 -22 -74 -23 -227 l0 -170 33 -69
c18 -39 51 -87 72 -107 62 -59 95 -65 278 -50 400 32 965 142 1294 251 612
203 1159 731 1430 1379 58 140 67 204 33 241 -22 25 -22 25 -66 -9z"/>
<path d="M11723 15998 c-14 -31 -2 -62 68 -180 132 -222 309 -449 499 -638
305 -303 697 -553 1155 -738 319 -128 544 -185 735 -186 120 -1 128 0 190 30
119 56 174 121 168 197 -1 23 1 87 5 142 10 120 -3 220 -35 284 -41 78 -69 87
-466 151 -233 37 -635 144 -887 235 -172 63 -524 214 -665 285 -173 89 -385
218 -524 320 -68 49 -132 90 -142 90 -10 1 -30 7 -44 15 -35 20 -45 18 -57 -7z"/>
<path d="M14312 13938 c-20 -20 -14 -66 11 -82 18 -11 260 -76 377 -100 23 -5
26 -12 38 -83 44 -287 314 -493 617 -469 155 12 351 76 477 158 158 102 330
317 353 440 8 42 -11 65 -82 99 l-43 21 -153 -21 c-316 -43 -667 -66 -897 -58
-174 5 -310 25 -531 77 -143 34 -150 35 -167 18z m1698 -171 c0 -19 -49 -93
-100 -152 -133 -155 -317 -252 -520 -274 -103 -12 -210 0 -280 30 -98 42 -203
190 -216 305 l-6 49 278 1 c257 1 585 21 722 44 76 13 122 12 122 -3z"/>
<path d="M11945 11751 c-30 -4 -43 -13 -52 -32 -29 -60 -44 -2460 -16 -2477 6
-4 114 -9 240 -11 305 -4 366 12 377 103 16 117 35 740 57 1780 9 445 9 553
-2 572 -7 13 -32 35 -55 49 -42 25 -44 25 -276 24 -128 -1 -251 -5 -273 -8z
m455 -163 c0 -29 -7 -354 -15 -723 -8 -368 -15 -857 -15 -1086 0 -371 -2 -418
-16 -423 -9 -3 -95 -6 -191 -6 l-175 0 6 43 c13 92 46 1581 46 2090 l0 157
180 0 180 0 0 -52z"/>
</g>
</svg>
